<?xml version="1.0" encoding="UTF-8"?>
<svg xmlns="http://www.w3.org/2000/svg" id="Layer_1" data-name="Layer 1" viewBox="0 0 24 24">
  <path d="m23.63,16.862l-2.03-7.973c-.356.073-.723.111-1.1.111-.733,0-1.431-.147-2.072-.408l2.14,8.408H3.419l2.291-8.955c.66-2.971,3.247-5.045,6.29-5.045,1.076,0,2.105.27,3.013.748-.004-.083-.013-.164-.013-.248,0-.993.269-1.923.731-2.729-1.154-.498-2.419-.771-3.731-.771C7.54,0,3.75,3.041,2.793,7.348L.321,17.011c-.153.702.035,1.47.503,2.053.478.596,1.188.937,1.951.937h4.142c.563,2.293,2.617,4,5.084,4s4.521-1.707,5.084-4h4.128c.789,0,1.515-.36,1.99-.986.407-.535.562-1.193.472-1.846-.004-.101-.019-.204-.045-.306Zm-6.63-13.362c0-1.93,1.57-3.5,3.5-3.5s3.5,1.57,3.5,3.5-1.57,3.5-3.5,3.5-3.5-1.57-3.5-3.5Z"/>
</svg>
